<svg xmlns="http://www.w3.org/2000/svg" viewBox="0 0 188.91 116.93"><defs><style>.cls-1{fill:#44c2e4;}</style></defs><g id="Laag_2" data-name="Laag 2"><g id="Layer_1" data-name="Layer 1"><path class="cls-1" d="M35.45,116.93h118a35.39,35.39,0,0,0,35.45-35.25,35,35,0,0,0-13.92-28,5.55,5.55,0,0,1-2-2.89,41.48,41.48,0,0,0-49.82-28.68,5.56,5.56,0,0,1-5.93-2.25A45.8,45.8,0,0,0,33.93,41.38a5.55,5.55,0,0,1-3.15,4.5c-.55.26-1.11.55-1.65.85a5.87,5.87,0,0,1-1.48.56A35.61,35.61,0,0,0,7.88,59.52,34.74,34.74,0,0,0,0,81.68,35.39,35.39,0,0,0,35.45,116.93Z"/></g></g></svg>