<svg xmlns="http://www.w3.org/2000/svg" viewBox="0 0 230.39 160.21"><defs><style>.cls-1{fill:#44c2e4;}.cls-2{fill:#e6c705;}</style></defs><g id="Laag_2" data-name="Laag 2"><g id="Layer_1" data-name="Layer 1"><path class="cls-1" d="M216.47,97a5.59,5.59,0,0,1-2-2.89,41.48,41.48,0,0,0-49.82-28.68,5.56,5.56,0,0,1-5.93-2.24A45.79,45.79,0,0,0,75.42,84.66a5.57,5.57,0,0,1-3.15,4.5c-.55.26-1.11.55-1.65.85a6.09,6.09,0,0,1-1.49.56A35.62,35.62,0,0,0,49.37,102.8,34.69,34.69,0,0,0,41.49,125a35.39,35.39,0,0,0,35.45,35.25h118A35.39,35.39,0,0,0,230.39,125,34.93,34.93,0,0,0,216.47,97Z"/><path class="cls-2" d="M41.69,69.39A27.54,27.54,0,0,0,48.85,88a46.65,46.65,0,0,1,15.91-7.79A56.82,56.82,0,0,1,82.6,47c.45-.41.91-.81,1.37-1.21A27.71,27.71,0,0,0,41.69,69.39Z"/><path class="cls-2" d="M69.39,26.81A5.57,5.57,0,0,0,75,21.24V5.57a5.57,5.57,0,1,0-11.14,0V21.24A5.57,5.57,0,0,0,69.39,26.81Z"/><path class="cls-2" d="M40.49,30.48a5.57,5.57,0,1,0,9.65-5.57L42.3,11.34a5.56,5.56,0,0,0-9.64,5.56Z"/><path class="cls-2" d="M11.34,42.3l13.57,7.84a5.48,5.48,0,0,0,2.78.75,5.57,5.57,0,0,0,2.79-10.4L16.91,32.66a5.57,5.57,0,1,0-5.57,9.64Z"/><path class="cls-2" d="M5.57,75H21.24a5.57,5.57,0,1,0,0-11.14H5.57A5.57,5.57,0,0,0,5.57,75Z"/><path class="cls-2" d="M32.52,90.68a5.58,5.58,0,0,0-7.61-2L11.34,96.48a5.57,5.57,0,0,0,2.79,10.39,5.62,5.62,0,0,0,2.78-.74l13.57-7.84A5.58,5.58,0,0,0,32.52,90.68Z"/><path class="cls-2" d="M90.68,32.52a5.59,5.59,0,0,0,7.61-2l7.84-13.58a5.57,5.57,0,0,0-9.65-5.56L88.64,24.91A5.58,5.58,0,0,0,90.68,32.52Z"/></g></g></svg>