<svg xmlns="http://www.w3.org/2000/svg" viewBox="0 0 190.83 192.29"><defs><style>.cls-1{fill:#44c2e4;}</style></defs><g id="Laag_2" data-name="Laag 2"><g id="Layer_1" data-name="Layer 1"><path class="cls-1" d="M175,53.68a5.55,5.55,0,0,1-2-2.89,41.48,41.48,0,0,0-49.82-28.68,5.56,5.56,0,0,1-5.93-2.25A45.8,45.8,0,0,0,33.93,41.38a5.55,5.55,0,0,1-3.15,4.5c-.55.26-1.11.55-1.65.85a5.87,5.87,0,0,1-1.48.56A35.61,35.61,0,0,0,7.88,59.52,34.74,34.74,0,0,0,0,81.68a35.39,35.39,0,0,0,35.45,35.25h118a35.39,35.39,0,0,0,35.45-35.25A35,35,0,0,0,175,53.68Z"/><path class="cls-1" d="M173.5,140.93a5.57,5.57,0,0,0-5.57-5.57H21.66a5.57,5.57,0,0,0,0,11.14H167.93A5.58,5.58,0,0,0,173.5,140.93Z"/><path class="cls-1" d="M159.87,181.15H13.6a5.57,5.57,0,0,0,0,11.14H159.87a5.57,5.57,0,0,0,0-11.14Z"/><path class="cls-1" d="M46.72,158.56a5.57,5.57,0,0,0,0,11.14h53.6a5.57,5.57,0,1,0,0-11.14Z"/><path class="cls-1" d="M185.26,158.56H131.65a5.57,5.57,0,0,0,0,11.14h53.61a5.57,5.57,0,1,0,0-11.14Z"/></g></g></svg>