<svg xmlns="http://www.w3.org/2000/svg" viewBox="0 0 142.22 171.3"><defs><style>.cls-1{fill:#e7c229;}.cls-2{fill:#44c2e4;}</style></defs><g id="Laag_2" data-name="Laag 2"><g id="Layer_1" data-name="Layer 1"><path class="cls-1" d="M46.59,100.5a97.78,97.78,0,0,1-4.16-62.3A99.47,99.47,0,0,1,62.08,0c-2.61.8-5.19,1.71-7.73,2.75a87.52,87.52,0,0,0,66.33,162c2.54-1,5-2.2,7.44-3.46a99.67,99.67,0,0,1-40.8-13.45A97.83,97.83,0,0,1,46.59,100.5Z"/><polygon class="cls-2" points="91.62 92.48 87.73 107 101.62 101.25 114.23 109.44 113.06 94.45 124.74 84.99 110.13 81.47 104.74 67.44 96.88 80.25 81.87 81.04 91.62 92.48"/><polygon class="cls-2" points="132.6 34.08 126.85 26.36 124.21 35.62 115.08 38.7 123.08 44.07 123.19 53.7 130.77 47.76 139.96 50.63 136.65 41.59 142.22 33.73 132.6 34.08"/></g></g></svg>