<svg xmlns="http://www.w3.org/2000/svg" viewBox="0 0 188.91 167.59"><defs><style>.cls-1{fill:#3591a6;}.cls-2{fill:#44c2e4;}</style></defs><g id="Laag_2" data-name="Laag 2"><g id="Layer_1" data-name="Layer 1"><path class="cls-1" d="M35.45,116.93h118a35.39,35.39,0,0,0,35.45-35.25,35,35,0,0,0-13.92-28,5.55,5.55,0,0,1-2-2.89,41.48,41.48,0,0,0-49.82-28.68,5.58,5.58,0,0,1-5.93-2.25A45.8,45.8,0,0,0,33.93,41.38a5.55,5.55,0,0,1-3.15,4.5c-.55.26-1.11.55-1.65.85a5.87,5.87,0,0,1-1.48.56A35.55,35.55,0,0,0,7.88,59.52,34.74,34.74,0,0,0,0,81.68,35.39,35.39,0,0,0,35.45,116.93Z"/><path class="cls-2" d="M41.67,134.81a5.57,5.57,0,0,0-3.69,7l6.7,21.88A5.58,5.58,0,0,0,50,167.59a5.75,5.75,0,0,0,1.63-.24,5.58,5.58,0,0,0,3.69-7l-6.7-21.88A5.58,5.58,0,0,0,41.67,134.81Z"/><path class="cls-2" d="M88.31,134.81a5.56,5.56,0,0,0-3.69,7l6.7,21.88a5.58,5.58,0,0,0,5.33,3.94,5.75,5.75,0,0,0,1.63-.24,5.58,5.58,0,0,0,3.69-7l-6.7-21.88A5.58,5.58,0,0,0,88.31,134.81Z"/><path class="cls-2" d="M135,134.81a5.56,5.56,0,0,0-3.69,7l6.7,21.88a5.58,5.58,0,0,0,5.33,3.94,5.75,5.75,0,0,0,1.63-.24,5.58,5.58,0,0,0,3.69-7l-6.7-21.88A5.58,5.58,0,0,0,135,134.81Z"/></g></g></svg>