<svg xmlns="http://www.w3.org/2000/svg" viewBox="0 0 188.91 177.51"><defs><style>.cls-1{fill:#44c2e4;}</style></defs><g id="Laag_2" data-name="Laag 2"><g id="Layer_1" data-name="Layer 1"><path class="cls-1" d="M175,53.68a5.55,5.55,0,0,1-2-2.89,41.48,41.48,0,0,0-49.82-28.68,5.56,5.56,0,0,1-5.93-2.25A45.8,45.8,0,0,0,33.93,41.38a5.55,5.55,0,0,1-3.15,4.5c-.55.26-1.11.54-1.65.85a5.87,5.87,0,0,1-1.48.56A35.55,35.55,0,0,0,7.88,59.52,34.74,34.74,0,0,0,0,81.68a35.39,35.39,0,0,0,35.45,35.25h118a35.39,35.39,0,0,0,35.45-35.25A35,35,0,0,0,175,53.68Z"/><path class="cls-1" d="M31.71,140.14a5,5,0,0,0-5,5v7.66l-8.14-2.21a5,5,0,1,0-2.6,9.6l7.83,2.13-4.73,7.29A5,5,0,0,0,27.43,175l4.35-6.71,4.71,7a5,5,0,0,0,8.25-5.55l-5-7.5,7.72-2.1a5,5,0,0,0-2.6-9.6l-8.14,2.21v-7.66A5,5,0,0,0,31.71,140.14Z"/><path class="cls-1" d="M94.45,140.14a5,5,0,0,0-5,5v7.66l-8.14-2.21a5,5,0,1,0-2.6,9.6l7.83,2.13-4.74,7.29A5,5,0,0,0,90.18,175l4.35-6.71,4.71,7a5,5,0,0,0,8.25-5.55l-5-7.5,7.72-2.1a5,5,0,1,0-2.6-9.6l-8.14,2.21v-7.66A5,5,0,0,0,94.45,140.14Z"/><path class="cls-1" d="M157.2,140.14a5,5,0,0,0-5,5v7.66l-8.15-2.21a5,5,0,1,0-2.6,9.6l7.84,2.13-4.74,7.29a5,5,0,0,0,8.34,5.42l4.35-6.71,4.71,7a5,5,0,0,0,4.14,2.2,5,5,0,0,0,4.12-7.75l-5-7.5,7.72-2.1a5,5,0,1,0-2.6-9.6l-8.15,2.21v-7.66A5,5,0,0,0,157.2,140.14Z"/></g></g></svg>