<svg xmlns="http://www.w3.org/2000/svg" viewBox="0 0 239.15 125.15"><defs><style>.cls-1{fill:#e6c705;}</style></defs><g id="Laag_2" data-name="Laag 2"><g id="Layer_1" data-name="Layer 1"><path class="cls-1" d="M119.58,58.87A60.79,60.79,0,0,0,59.13,114H180A60.79,60.79,0,0,0,119.58,58.87Z"/><path class="cls-1" d="M114,5.57v27a5.57,5.57,0,0,0,11.14,0v-27a5.57,5.57,0,0,0-11.14,0Z"/><path class="cls-1" d="M59.79,16a5.56,5.56,0,0,0-2,7.61L71.25,47a5.57,5.57,0,0,0,9.65-5.57L67.4,18.06A5.57,5.57,0,0,0,59.79,16Z"/><path class="cls-1" d="M47,71.25,23.63,57.75a5.57,5.57,0,0,0-5.57,9.65L41.44,80.9a5.59,5.59,0,0,0,7.61-2A5.56,5.56,0,0,0,47,71.25Z"/><path class="cls-1" d="M38.14,119.58A5.57,5.57,0,0,0,32.57,114h-27a5.57,5.57,0,0,0,0,11.14h27A5.57,5.57,0,0,0,38.14,119.58Z"/><path class="cls-1" d="M233.58,114h-27a5.57,5.57,0,0,0,0,11.14h27a5.57,5.57,0,0,0,0-11.14Z"/><path class="cls-1" d="M197.71,80.9l23.38-13.5a5.57,5.57,0,0,0-5.57-9.65l-23.38,13.5a5.57,5.57,0,0,0,5.57,9.65Z"/><path class="cls-1" d="M160.29,49.05a5.56,5.56,0,0,0,7.61-2l13.5-23.38a5.57,5.57,0,1,0-9.64-5.57L158.25,41.44A5.58,5.58,0,0,0,160.29,49.05Z"/></g></g></svg>