<svg xmlns="http://www.w3.org/2000/svg" viewBox="0 0 221.03 193.93"><defs><style>.cls-1{fill:#44c2e4;}.cls-2{fill:#3591a6;}</style></defs><g id="Laag_2" data-name="Laag 2"><g id="Layer_1" data-name="Layer 1"><path class="cls-1" d="M81.79,89.37c0-21.9,19.8-39.71,44.15-39.71a48.38,48.38,0,0,1,15.21,2.41,40.72,40.72,0,0,1,18.78-10.76,38.77,38.77,0,0,0-44.1-20.48,5.55,5.55,0,0,1-5.92-2.25A42.84,42.84,0,0,0,32,38.7a5.55,5.55,0,0,1-3.15,4.5c-.51.24-1,.51-1.54.79a5.51,5.51,0,0,1-1.48.56A33.22,33.22,0,0,0,7.36,56,32.36,32.36,0,0,0,0,76.64a33,33,0,0,0,33.08,32.9H72.8a36,36,0,0,1,9-18.47C81.8,90.5,81.79,89.93,81.79,89.37Z"/><path class="cls-1" d="M48.74,193.93a5.58,5.58,0,0,0,5.33-7.2l-6.71-21.89a5.57,5.57,0,0,0-10.65,3.27L43.42,190A5.56,5.56,0,0,0,48.74,193.93Z"/><path class="cls-1" d="M95.38,193.93a5.58,5.58,0,0,0,5.33-7.2L94,164.84a5.57,5.57,0,0,0-10.65,3.27L90.06,190A5.56,5.56,0,0,0,95.38,193.93Z"/><path class="cls-1" d="M142,193.93a5.58,5.58,0,0,0,5.33-7.2l-6.71-21.89A5.57,5.57,0,0,0,130,168.11L136.7,190A5.56,5.56,0,0,0,142,193.93Z"/><path class="cls-2" d="M202,90.3a5.57,5.57,0,0,1-3.34-7.13,21.52,21.52,0,0,0,1.29-7.36c0-10.57-7.7-19.61-18.52-23.18a33.07,33.07,0,0,0-15.81-1.16,29.35,29.35,0,0,0-18.38,10.59,5.57,5.57,0,0,1-6.6,1.71,36.86,36.86,0,0,0-14.65-3c-18.21,0-33,12.81-33,28.57a24.59,24.59,0,0,0,.2,3.07,5.61,5.61,0,0,1-1.67,4.7,25.73,25.73,0,0,0-7.29,12.4,23.15,23.15,0,0,0-.67,5.51,23.4,23.4,0,0,0,.69,5.63c3,12.09,15.46,21.19,30.35,21.19H190c17.11,0,31-12,31-26.82C221,104.21,213.54,94.5,202,90.3Z"/></g></g></svg>