<svg xmlns="http://www.w3.org/2000/svg" viewBox="0 0 188.91 171.78"><defs><style>.cls-1{fill:#44c2e4;}.cls-2{fill:#e6c705;}</style></defs><g id="Laag_2" data-name="Laag 2"><g id="Layer_1" data-name="Layer 1"><path class="cls-1" d="M56.63,105.46l24.78-73h31.3L94.45,81.77h37.83l-23,35.16h44.23a35.39,35.39,0,0,0,35.45-35.25,35,35,0,0,0-13.92-28,5.6,5.6,0,0,1-2-2.89,41.48,41.48,0,0,0-49.82-28.68,5.56,5.56,0,0,1-5.93-2.25A45.8,45.8,0,0,0,33.93,41.38a5.55,5.55,0,0,1-3.15,4.5c-.55.26-1.1.54-1.65.85a5.87,5.87,0,0,1-1.48.56A35.61,35.61,0,0,0,7.88,59.52,34.74,34.74,0,0,0,0,81.68a35.39,35.39,0,0,0,35.45,35.25H87l2.88-11.47Z"/><polygon class="cls-2" points="94.45 81.77 112.72 32.5 81.41 32.5 56.63 105.46 89.89 105.46 87.01 116.93 84.22 128.07 73.26 171.78 101.92 128.07 109.23 116.93 132.28 81.77 94.45 81.77"/></g></g></svg>